<svg xmlns="http://www.w3.org/2000/svg" viewBox="0 0 64 64" fill="none">
  <defs>
    <linearGradient id="bg" x1="12" y1="10" x2="54" y2="58" gradientUnits="userSpaceOnUse">
      <stop stop-color="#0F172A" />
      <stop offset="1" stop-color="#111827" />
    </linearGradient>
    <linearGradient id="accent" x1="18" y1="18" x2="46" y2="48" gradientUnits="userSpaceOnUse">
      <stop stop-color="#34D399" />
      <stop offset="1" stop-color="#14B8A6" />
    </linearGradient>
  </defs>
  <circle cx="32" cy="32" r="30" fill="url(#bg)" />
  <path d="M18 24.5C18 22.0157 20.0157 20 22.5 20H41.5C43.9853 20 46 22.0157 46 24.5V39.5C46 41.9853 43.9853 44 41.5 44H22.5C20.0157 44 18 41.9853 18 39.5V24.5Z" fill="url(#accent)" />
  <path d="M24 24.5H40C41.1046 24.5 42 25.3954 42 26.5V27.5H22V26.5C22 25.3954 22.8954 24.5 24 24.5Z" fill="#E6FFFB" opacity="0.95" />
  <path d="M26 33.5C26 31.0147 28.0147 29 30.5 29H33.5C35.9853 29 38 31.0147 38 33.5C38 35.9853 35.9853 38 33.5 38H30.5C28.0147 38 26 35.9853 26 33.5Z" fill="#0F172A" fill-opacity="0.9" />
  <path d="M22 35.5H42" stroke="#E6FFFB" stroke-width="2" stroke-linecap="round" opacity="0.9" />
  <path d="M31.5 31V36" stroke="#E6FFFB" stroke-width="2.5" stroke-linecap="round" />
</svg>